<?xml version="1.0" encoding="utf-8"?>
<!-- Generator: Adobe Illustrator 23.1.0, SVG Export Plug-In . SVG Version: 6.00 Build 0)  -->
<svg version="1.1" id="Layer_1" xmlns="http://www.w3.org/2000/svg" xmlns:xlink="http://www.w3.org/1999/xlink" x="0px" y="0px"
	 viewBox="0 0 582.1 167.4" style="enable-background:new 0 0 582.1 167.4;" xml:space="preserve">
<style type="text/css">
	.st0{fill:#FFFFFF;}
	.st1{fill:none;stroke:#FFFFFF;stroke-width:3;stroke-miterlimit:10;}
</style>
<g>
	<g>
		<path class="st0" d="M51.4,71c0-1.8-1.4-3.2-3.2-3.2S45,69.2,45,71v5.6c-5-6.5-12.5-7.2-15.6-7.2c-14.3,0-22.7,11.3-22.7,22.1
			c0,12.5,10,22.2,22.7,22.2c3.1,0,10.5-0.7,15.6-7.2v5.7c0,1.8,1.4,3.2,3.2,3.2s3.2-1.4,3.2-3.2l0,0V71C51.4,71.1,51.4,71,51.4,71
			 M29.4,107.8c-9.4,0-16.3-6.8-16.3-16.1c0-10.7,8.2-16.4,16.3-16.4c8.8,0,15.9,7.3,15.9,16.3C45.3,100.7,38.3,107.8,29.4,107.8
			 M99.3,67.8c-1.8,0-3.2,1.4-3.2,3.2v0.1v5.6c-5-6.5-12.5-7.2-15.6-7.2c-14.3,0-22.7,11.3-22.7,22.1c0,12.5,10,22.2,22.7,22.2
			c3.1,0,10.5-0.7,15.6-7.2v20v0.1c0,1.8,1.4,3.2,3.2,3.2c1.8,0,3.2-1.4,3.2-3.2V71.1C102.5,69.2,101,67.8,99.3,67.8 M80.5,107.8
			c-9.3,0-16.3-6.9-16.3-16.1c0-10.7,8.2-16.4,16.3-16.4c8.8,0,15.9,7.3,15.9,16.3C96.4,100.7,89.3,107.8,80.5,107.8 M196.7,67.8
			c-1.8,0-3.2,1.4-3.2,3.2v5.6c-5-6.5-12.5-7.2-15.6-7.2c-14.3,0-22.7,11.3-22.7,22.1c0,12.5,10,22.2,22.7,22.2
			c3.1,0,10.5-0.7,15.6-7.2v5.7c0,1.8,1.4,3.2,3.2,3.2s3.2-1.4,3.2-3.2V71C199.9,69.2,198.4,67.8,196.7,67.8 M177.9,107.8
			c-9.4,0-16.3-6.8-16.3-16.1c0-10.7,8.2-16.4,16.3-16.4c8.8,0,15.9,7.3,15.9,16.3C193.8,100.7,186.7,107.8,177.9,107.8 M144.9,67.8
			c-1.8,0-3.2,1.4-3.2,3.2c0,0,0,0,0,0.1v21.7c0,7.2-2,9.7-4.1,12c-2.2,2.1-4.9,3.1-8.4,3.1c-3.8,0-6.9-1.2-9.1-3.7
			c-1.9-2.4-2.8-5.8-2.8-10.4V71.1c0-1.8-1.4-3.2-3.2-3.2c-1.8,0-3.2,1.4-3.2,3.2l0,0v22.7c0,6,1.2,10.5,3.7,13.6
			c1.9,2.4,6.3,6.4,14.6,6.4c7.3,0,11.1-3.7,12.8-6.1v4.5c0,1.7,1.3,3.1,3.1,3.1c1.7,0,3.1-1.3,3.1-3.1v-41
			C148.1,69.2,146.7,67.8,144.9,67.8"/>
		<path class="st0" d="M287.8,53.3c-1.8,0-3.2,1.4-3.2,3.2v55.7c0,1.8,1.4,3.2,3.2,3.2s3.2-1.4,3.2-3.2V56.5
			C291,54.7,289.5,53.3,287.8,53.3 M255.2,69.3c-3,0-10.2,0.7-15.6,7.3V71c0-1.8-1.4-3.2-3.2-3.2s-3.2,1.4-3.2,3.2v55.6
			c0,1.8,1.4,3.2,3.2,3.2s3.2-1.4,3.2-3.2v-20.1c5.4,6.7,13.2,7.2,15.6,7.2c12.7,0,22.7-9.8,22.7-22.2
			C277.8,80.6,269.4,69.3,255.2,69.3 M255.2,107.8c-8.9,0-15.9-7.1-15.9-16.2c0-9,7.1-16.3,15.9-16.3c8.1,0,16.3,5.7,16.3,16.4
			C271.4,100.9,264.4,107.8,255.2,107.8 M369.6,69.3c-5.8,0-9.9,2.6-12.2,5.4V71c0-1.8-1.4-3.2-3.2-3.2S351,69.2,351,71
			c0,0,0,0,0,0.1v41c0,0,0,0,0,0.1c0,1.8,1.4,3.2,3.2,3.2s3.2-1.4,3.2-3.2V89.5c-0.1-4.6,1.2-8.6,3.7-10.8c3.2-3.1,7.3-3.4,8.6-3.4
			c1.2,0,5.4,0.2,8.6,3.4c2.4,2.4,3.7,6.2,3.7,10.8v22.6c0,1.8,1.4,3.2,3.2,3.2s3.2-1.4,3.2-3.2V89.5c0-6.4-1.9-11.6-5.3-15
			C379.5,71,375.4,69.3,369.6,69.3 M466.4,70.4h-9.3V56.5c0-1.8-1.4-3.2-3.2-3.2s-3.2,1.4-3.2,3.2v0.1v13.8h-8.1c-1.7,0-3,1.3-3,2.9
			c0,1.7,1.3,3,3,3h0.1h8v35.4v0.1v0.1v0.3c0,0.1,0.1,0.2,0.1,0.3c0.3,1.4,1.5,2.5,3.1,2.5c1.4,0,2.7-1,3.1-2.5
			c0.1-0.1,0.1-0.2,0.1-0.4V76.3h9.2h0.1c1.7,0,2.9-1.3,2.9-3C469.2,71.7,467.9,70.4,466.4,70.4 M416.8,69.3
			c-12.1,0.2-21.9,10.2-21.9,22.2c0,12.2,9.9,22.1,22,22.1c8.6,0,16.4-5.1,20-12.9c0,0,0.1-0.1,0.1-0.2c0.8-2.4-0.5-3.7-2-4.2
			c-0.3-0.1-0.6-0.2-1-0.2c-1.3,0-2.6,0.9-3,2.3c-1.5,4.2-6.2,9.2-14.3,9.3c-7.6,0-14.7-6.3-15.3-13.7h36.9c0.3,0,0.5-0.2,0.6-0.5
			c0.3-5-0.8-9.5-3.2-13.3C432.7,75,426.2,69.4,416.8,69.3 M401.5,88.2c1.7-8.9,9.1-12.9,15.4-12.9c6.2,0,13.5,4,15.4,12.9H401.5z
			 M339.4,67.8c-1.8,0-3.2,1.4-3.2,3.2c0,0,0,0,0,0.1v5.6c-5-6.5-12.5-7.2-15.6-7.2c-14.3,0-22.7,11.3-22.7,22.1
			c0,12.5,10,22.2,22.7,22.2c3.1,0,10.5-0.7,15.6-7.2v5.6l0,0c0,1.8,1.4,3.2,3.2,3.2s3.2-1.4,3.2-3.2V71
			C342.6,69.2,341.2,67.8,339.4,67.8 M320.6,107.8c-9.4,0-16.3-6.8-16.3-16.1c0-10.7,8.2-16.4,16.3-16.4c8.8,0,15.9,7.3,15.9,16.3
			C336.5,100.7,329.5,107.8,320.6,107.8"/>
	</g>
	<g>
		<polygon class="st0" points="342.6,128.6 346.4,128.6 352.9,141.9 359.5,128.6 363.2,128.6 354.6,146.2 354.6,159.6 351.2,159.6 
			351.2,146.2 		"/>
		<polygon class="st0" points="366.5,128.9 382.6,128.9 382.6,132.3 370.2,132.3 370.2,140.9 382.3,140.9 382.3,144.4 370.2,144.4 
			370.2,155.9 382.6,155.9 382.6,159.4 366.5,159.4 		"/>
		<path class="st0" d="M416.6,144.2c0,8.9-7,15.7-15.8,15.7c-8.7,0-15.8-6.7-15.8-15.7c0-8.6,7.1-15.7,15.8-15.7
			C409.4,128.5,416.6,135.5,416.6,144.2 M412.8,144.2c0-6.6-4.9-12.1-12-12.1c-7,0-12,5.5-12,12.1c0,6.8,5.5,12.1,12,12.1
			C407.2,156.3,412.8,151,412.8,144.2"/>
		<path class="st0" d="M434.7,134.8c-1.2-1.9-2.9-2.8-5.5-2.8c-2.7,0-5.7,1.6-5.7,4.2c0,2.4,2.6,3.6,4.7,4.3l2.4,0.9
			c4.8,1.7,8.4,4,8.4,9c0,5.5-4.8,9.4-10.9,9.4c-5.5,0-9.8-3.6-10.5-8.5l4.2-0.8c0,3.3,2.9,5.7,6.5,5.7c3.7,0,6.2-2.7,6.2-5.9
			c0-3.2-2.9-4.6-5.9-5.7l-2.3-0.9c-3.8-1.4-7.4-3.5-7.4-7.6c0-4.9,4.8-7.8,10-7.8c3.7,0,6.8,1.6,8.7,4.5L434.7,134.8z"/>
		<path class="st0" d="M446,128.6v17.9c0,5,1.4,9.5,7.2,9.5c5.8,0,7.2-4.6,7.2-9.5v-17.9h3.7v19.2c0,6.7-4.1,11.8-11,11.8
			s-11-5.1-11-11.8v-19.2H446z"/>
	</g>
	<g>
		<path class="st1" d="M576.7,77.8c-0.2,2.1-0.8,4-1.6,5.9c-1.7,3.8-4.6,7-8.6,9c-2,0.9-4.2,1.8-6.6,2.1c-1.9,0.3-3.8,0.3-5.8-0.2
			c-0.9,5.2-2.5,10.1-4.3,14.9l0,0v0.1c0,0,0,0.1-0.1,0.2c-2.5,5.6-6.1,11.5-11.7,16.4c-5.5,4.9-12.8,8.5-22.4,9.5
			c-5.2,0.5-11.1,0.5-17.6-0.8c-0.2,0.1-0.4,0.2-0.7,0.3c-0.7,0.4-1.7,0.9-2.7,1.6c-2.1,1.2-4.5,2.7-6.8,3.6
			c-1.7,0.5-3.3,1.1-5.6,0.3l0,0c-0.7-0.3-1.6-0.9-2-1.7c-0.7-1.2-0.6-1.8-0.6-2.3s0.1-0.8,0.2-1.2c0.2-0.7,0.4-1.6,0.7-2.4
			c0.2-0.5,0.4-1,0.6-1.6c0.7-1.6,1.4-2.9,2.5-4.1c0.6-0.7,1.3-1.2,1.8-1.6c-0.1-0.5-0.2-1-0.2-1.8c0-0.9,0.2-1.7,0.4-2.4
			c0.2-0.7,0.5-1.4,0.8-2.2c0.5-1.1,1.1-2.3,1.8-3.3s1.1-1.8,1.9-2.6c0.3-0.2,0.5-0.5,1.1-0.8c0.2-0.1,0.3-0.1,0.5-0.2
			c1-0.3,2.1-0.1,2.8,0.2c1.3,0.6,1.9,1.4,2.5,2.2c0.6,0.8,1.1,1.8,1.7,2.8c0.7,1.3,1.4,2.9,2.2,4.5c3.2-1.9,6.1-4.6,7.3-7.5
			c0.8-1.8,1-3.6,0.6-5.8c-0.6-3.1-2.5-5.8-4.9-6.8c-0.6-0.3-1.3-0.5-2.1-0.5c0,0-0.1,0-0.2,0c-0.2,0-0.4,0-0.7,0
			c-0.5,0-1.3,0-2.1,0c-1.7,0-3.5,0-5.3-0.1c-1.1-0.1-2.2-0.2-3.4-0.7c-0.3-0.1-0.7-0.4-1.1-0.7c-0.4-0.4-0.9-0.9-1.1-1.9
			c0-0.1,0-0.3-0.1-0.4c-2.7,0.1-5.3-0.4-7.8-1.6c-0.5-0.2-1.1-0.5-1.7-0.8c-1.3-0.8-3.3-2-4.6-4.5c-0.4-0.8-0.6-2-0.5-3.1
			c0-0.4,0.2-0.9,0.4-1.3c0.9-1.9,2.1-2.4,2.6-2.9c0.6-0.5,0.8-0.8,0.9-0.9c0-0.1,0.1-0.2,0.1-0.5c0-0.6-0.1-1-0.4-1.8
			c-0.3-0.7-0.8-1.7-1.3-3c-1.1-2.7-1.8-5.6-2.1-8.5c-0.4-5,0.6-10,2.6-14.5c0.4-0.8,0.8-1.8,1.2-2.6c3.4-6.1,8.9-10.2,14.8-12.9
			c6-2.7,12.4-3.8,18.1-3.5c5.6,0.3,10.9,1.7,15.9,3.8c0.1,0.1,0.3,0.1,0.4,0.2c3.2,1.4,6.1,3.3,8.7,5.5c5.7,4.8,9.2,10.5,12.2,17.1
			c1.3,3.1,2.3,6.1,3.1,9c1.6-0.7,3.7-1.9,6-3c3-1.4,6.2-3,9.2-3.8c2.1-0.5,4.1-0.8,6.4,0.1c1.4,0.6,2.8,2.1,3.2,3.7
			C576.7,70.8,577.2,74.3,576.7,77.8"/>
		<path class="st0" d="M505.3,77.1c-2.1-0.8-3.3-2.7-2.8-4.2c0.5-1.6,2.7-2.1,4.9-1.2s3.3,2.7,2.8,4.2
			C509.6,77.4,507.4,77.9,505.3,77.1"/>
		<path class="st1" d="M487.1,97.4c0,0,8.4-2.3,13.1-7.3"/>
	</g>
</g>
</svg>
